<svg xmlns="http://www.w3.org/2000/svg" viewBox="0 0 480 360" role="img">
<rect width="480" height="360" rx="28" fill="#E9EEF5"/>
<circle cx="410" cy="70" r="34" fill="#E3A33B"/>
<rect x="0" y="314" width="480" height="46" fill="#D7DEEC"/>
<path d="M70 314 L70 120 L240 50 L410 120 L410 314 Z" fill="#FFFFFF"/>
<path d="M54 128 L240 40 L426 128" fill="none" stroke="#14213D" stroke-width="14" stroke-linejoin="round" stroke-linecap="round"/>
<rect x="110" y="140" width="260" height="174" fill="#14213D"/>
<rect x="118.0" y="148" width="120.0" height="166" rx="3" fill="#C98A4B"/><rect x="134.14285714285714" y="154" width="2" height="154" fill="#9C6431"/><rect x="151.28571428571428" y="154" width="2" height="154" fill="#9C6431"/><rect x="168.42857142857144" y="154" width="2" height="154" fill="#9C6431"/><rect x="185.57142857142856" y="154" width="2" height="154" fill="#9C6431"/><rect x="202.71428571428572" y="154" width="2" height="154" fill="#9C6431"/><rect x="219.85714285714286" y="154" width="2" height="154" fill="#9C6431"/><path d="M126.0 304 L230.0 160" stroke="#9C6431" stroke-width="6"/><rect x="124.0" y="164" width="108.0" height="8" fill="#9C6431"/><rect x="124.0" y="290" width="108.0" height="8" fill="#9C6431"/><rect x="242.0" y="148" width="120.0" height="166" rx="3" fill="#C98A4B"/><rect x="258.14285714285717" y="154" width="2" height="154" fill="#9C6431"/><rect x="275.2857142857143" y="154" width="2" height="154" fill="#9C6431"/><rect x="292.42857142857144" y="154" width="2" height="154" fill="#9C6431"/><rect x="309.57142857142856" y="154" width="2" height="154" fill="#9C6431"/><rect x="326.7142857142857" y="154" width="2" height="154" fill="#9C6431"/><rect x="343.8571428571429" y="154" width="2" height="154" fill="#9C6431"/><path d="M250.0 304 L354.0 160" stroke="#9C6431" stroke-width="6"/><rect x="248.0" y="164" width="108.0" height="8" fill="#9C6431"/><rect x="248.0" y="290" width="108.0" height="8" fill="#9C6431"/><rect x="226.0" y="217.0" width="6" height="28" rx="3" fill="#E3A33B"/><rect x="248.0" y="217.0" width="6" height="28" rx="3" fill="#E3A33B"/>
</svg>